<svg xmlns="http://www.w3.org/2000/svg" viewBox="0 0 57.7 54.55">
  <defs>
    <style>
      .cls-1 {
        fill: #fff;
        fill-rule: evenodd;
      }
    </style>
  </defs>
  <g id="lw_home" transform="translate(-159 -417)">
    <g id="Group_9" data-name="Group 9" transform="translate(157.85 414.25)">
      <path id="Path_82" data-name="Path 82" class="cls-1" d="M2.2,34.2a3.606,3.606,0,1,1,5.1,0A3.621,3.621,0,0,1,2.2,34.2Z"/>
      <path id="Path_83" data-name="Path 83" class="cls-1" d="M8.5,27.9a3.606,3.606,0,1,1,5.1,0A3.621,3.621,0,0,1,8.5,27.9Z"/>
      <path id="Path_84" data-name="Path 84" class="cls-1" d="M14.8,21.5a3.606,3.606,0,1,1,5.1,0A3.621,3.621,0,0,1,14.8,21.5Z"/>
      <path id="Path_85" data-name="Path 85" class="cls-1" d="M21.1,15.2a3.606,3.606,0,1,1,5.1,0A3.621,3.621,0,0,1,21.1,15.2Z"/>
      <path id="Path_86" data-name="Path 86" class="cls-1" d="M27.4,8.9a3.606,3.606,0,1,1,5.1,0A3.621,3.621,0,0,1,27.4,8.9Z"/>
      <path id="Path_87" data-name="Path 87" class="cls-1" d="M52.7,34.2a3.606,3.606,0,1,1,5.1,0A3.621,3.621,0,0,1,52.7,34.2Z"/>
      <path id="Path_88" data-name="Path 88" class="cls-1" d="M46.4,27.9a3.606,3.606,0,1,1,5.1,0A3.621,3.621,0,0,1,46.4,27.9Z"/>
      <path id="Path_89" data-name="Path 89" class="cls-1" d="M40.1,21.5a3.606,3.606,0,1,1,5.1,0A3.621,3.621,0,0,1,40.1,21.5Z"/>
      <path id="Path_90" data-name="Path 90" class="cls-1" d="M33.8,15.2a3.606,3.606,0,1,1,5.1,0A3.621,3.621,0,0,1,33.8,15.2Z"/>
      <path id="Path_91" data-name="Path 91" class="cls-1" d="M17.4,53.7A3.6,3.6,0,1,1,21,57.3,3.65,3.65,0,0,1,17.4,53.7Z"/>
      <path id="Path_92" data-name="Path 92" class="cls-1" d="M35.3,53.7a3.6,3.6,0,1,1,3.6,3.6A3.585,3.585,0,0,1,35.3,53.7Z"/>
      <path id="Path_93" data-name="Path 93" class="cls-1" d="M47.9,32.2a3.6,3.6,0,1,1-3.6,3.6A3.585,3.585,0,0,1,47.9,32.2Z"/>
      <path id="Path_94" data-name="Path 94" class="cls-1" d="M47.9,41.1a3.6,3.6,0,1,1-3.6,3.6A3.585,3.585,0,0,1,47.9,41.1Z"/>
      <path id="Path_95" data-name="Path 95" class="cls-1" d="M47.9,50.1a3.6,3.6,0,1,1-3.6,3.6A3.585,3.585,0,0,1,47.9,50.1Z"/>
      <path id="Path_96" data-name="Path 96" class="cls-1" d="M12.1,32.2a3.6,3.6,0,1,1-3.6,3.6A3.585,3.585,0,0,1,12.1,32.2Z"/>
      <path id="Path_97" data-name="Path 97" class="cls-1" d="M12.1,41.1a3.6,3.6,0,1,1-3.6,3.6A3.585,3.585,0,0,1,12.1,41.1Z"/>
      <path id="Path_98" data-name="Path 98" class="cls-1" d="M12.1,50.1a3.6,3.6,0,1,1-3.6,3.6A3.585,3.585,0,0,1,12.1,50.1Z"/>
      <path id="Path_99" data-name="Path 99" class="cls-1" d="M9,4.3A3.6,3.6,0,1,1,5.4,7.9,3.585,3.585,0,0,1,9,4.3Z"/>
      <path id="Path_100" data-name="Path 100" class="cls-1" d="M9.3,13.1a3.6,3.6,0,1,1-3.6,3.6A3.585,3.585,0,0,1,9.3,13.1Z"/>
      <path id="Path_101" data-name="Path 101" class="cls-1" d="M26.4,53.7A3.6,3.6,0,1,1,30,57.3,3.585,3.585,0,0,1,26.4,53.7Z"/>
    </g>
    <g id="Group_10" data-name="Group 10" transform="translate(157.85 414.25)">
      <path id="Path_102" data-name="Path 102" class="cls-1" d="M30.9,40.6a3.6,3.6,0,1,1,3.6,3.6A3.585,3.585,0,0,1,30.9,40.6Z"/>
      <path id="Path_103" data-name="Path 103" class="cls-1" d="M30.9,31.6a3.6,3.6,0,1,1,3.6,3.6A3.585,3.585,0,0,1,30.9,31.6Z"/>
      <path id="Path_104" data-name="Path 104" class="cls-1" d="M25.5,28a3.6,3.6,0,1,1-3.6,3.6A3.585,3.585,0,0,1,25.5,28Z"/>
      <path id="Path_105" data-name="Path 105" class="cls-1" d="M21.9,40.6a3.6,3.6,0,1,1,3.6,3.6A3.585,3.585,0,0,1,21.9,40.6Z"/>
    </g>
  </g>
</svg>
