<svg xmlns="http://www.w3.org/2000/svg" viewBox="0 0 54.4 52.018">
  <defs>
    <style>
      .cls-1 {
        fill: #fff;
        fill-rule: evenodd;
      }
    </style>
  </defs>
  <g id="lw_cart" transform="translate(-159 -86)">
    <g id="Group_2" data-name="Group 2" transform="translate(156.2 82)">
      <path id="Path_26" data-name="Path 26" class="cls-1" d="M52.7,44a3.6,3.6,0,1,1-3.6-3.6A3.524,3.524,0,0,1,52.7,44Z"/>
      <path id="Path_27" data-name="Path 27" class="cls-1" d="M43.5,44a3.6,3.6,0,1,1-3.6-3.6A3.585,3.585,0,0,1,43.5,44Z"/>
      <path id="Path_28" data-name="Path 28" class="cls-1" d="M34.5,44a3.6,3.6,0,1,1-3.6-3.6A3.524,3.524,0,0,1,34.5,44Z"/>
      <path id="Path_29" data-name="Path 29" class="cls-1" d="M25.6,44A3.6,3.6,0,1,1,22,40.4,3.524,3.524,0,0,1,25.6,44Z"/>
    </g>
    <g id="Group_3" data-name="Group 3" transform="translate(156.2 82)">
      <path id="Path_30" data-name="Path 30" class="cls-1" d="M47.9,18.5a3.6,3.6,0,1,1-3.6-3.6A3.585,3.585,0,0,1,47.9,18.5Z"/>
      <path id="Path_31" data-name="Path 31" class="cls-1" d="M39,18.5a3.6,3.6,0,1,1-3.6-3.6A3.585,3.585,0,0,1,39,18.5Z"/>
      <path id="Path_32" data-name="Path 32" class="cls-1" d="M30,18.5a3.6,3.6,0,1,1-3.6-3.6A3.585,3.585,0,0,1,30,18.5Z"/>
      <path id="Path_33" data-name="Path 33" class="cls-1" d="M21.1,18.5a3.6,3.6,0,1,1-3.6-3.6A3.585,3.585,0,0,1,21.1,18.5Z"/>
      <path id="Path_34" data-name="Path 34" class="cls-1" d="M57.2,18.5a3.6,3.6,0,1,1-3.6-3.6A3.585,3.585,0,0,1,57.2,18.5Z"/>
    </g>
    <path id="Path_35" data-name="Path 35" class="cls-1" d="M19.1,56a3.6,3.6,0,1,1,3.6-3.6A3.524,3.524,0,0,1,19.1,56Z" transform="translate(156.2 82)"/>
    <path id="Path_36" data-name="Path 36" class="cls-1" d="M10,7.6A3.6,3.6,0,1,1,6.4,4,3.585,3.585,0,0,1,10,7.6Z" transform="translate(156.2 82)"/>
    <path id="Path_37" data-name="Path 37" class="cls-1" d="M14.5,14.1a3.6,3.6,0,1,1,3.6-3.6A3.585,3.585,0,0,1,14.5,14.1Z" transform="translate(156.2 82)"/>
    <path id="Path_38" data-name="Path 38" class="cls-1" d="M45.9,56a3.612,3.612,0,1,1,3.3-3.9A3.538,3.538,0,0,1,45.9,56Z" transform="translate(156.2 82)"/>
    <g id="Group_4" data-name="Group 4" transform="translate(156.2 82)">
      <path id="Path_39" data-name="Path 39" class="cls-1" d="M50.9,39.1a3.6,3.6,0,1,1,3.6-3.6A3.585,3.585,0,0,1,50.9,39.1Z"/>
      <path id="Path_40" data-name="Path 40" class="cls-1" d="M52.3,30.6A3.6,3.6,0,1,1,55.9,27,3.585,3.585,0,0,1,52.3,30.6Z"/>
    </g>
    <g id="Group_5" data-name="Group 5" transform="translate(156.2 82)">
      <path id="Path_41" data-name="Path 41" class="cls-1" d="M20.1,39.1a3.6,3.6,0,1,0-3.6-3.6A3.585,3.585,0,0,0,20.1,39.1Z"/>
      <path id="Path_42" data-name="Path 42" class="cls-1" d="M18.8,30.6A3.6,3.6,0,1,0,15.2,27,3.585,3.585,0,0,0,18.8,30.6Z"/>
    </g>
    <g id="Group_6" data-name="Group 6" transform="translate(156.2 82)">
      <path id="Path_43" data-name="Path 43" class="cls-1" d="M47.7,30.2a3.6,3.6,0,1,1-3.6-3.6A3.585,3.585,0,0,1,47.7,30.2Z"/>
      <path id="Path_44" data-name="Path 44" class="cls-1" d="M39.2,30.3a3.6,3.6,0,1,1-3.6-3.6A3.65,3.65,0,0,1,39.2,30.3Z"/>
      <path id="Path_45" data-name="Path 45" class="cls-1" d="M30.6,30.2A3.6,3.6,0,1,1,27,26.6,3.585,3.585,0,0,1,30.6,30.2Z"/>
    </g>
  </g>
</svg>
