<?xml version="1.0" encoding="UTF-8"?>
<svg width="130px" height="736px" viewBox="0 0 130 736" version="1.1" xmlns="http://www.w3.org/2000/svg" xmlns:xlink="http://www.w3.org/1999/xlink">
    <!-- Generator: Sketch 52.4 (67378) - http://www.bohemiancoding.com/sketch -->
    <title>Group 3</title>
    <desc>Created with Sketch.</desc>
    <g id="Welcome" stroke="none" stroke-width="1" fill="none" fill-rule="evenodd">
        <g id="Desktop-Copy-3" transform="translate(-497.000000, -23.000000)" fill="#979797" fill-rule="nonzero">
            <g id="Group-3" transform="translate(497.000000, 42.000000)">
                <path id="Line-2" d="M44.9755992,165.260758 C55.3943901,154.416088 60.5,145.41197 60.5,138.5 C60.5,126.644275 45.7070881,109.11789 15.9022522,86.8016877 L13.1005645,84.7039399 L17.2960601,79.1005645 L20.0977478,81.1983123 C51.6262452,104.805096 67.5,123.612045 67.5,138.5 C67.5,147.742856 61.4289054,158.369471 49.5064129,170.646136 L60.0142803,183.135911 L17.617396,193.321892 L34.9067421,153.292796 L44.9755992,165.260758 Z"></path>
                <path id="Line-2-Copy" d="M44.9755992,368.260758 C55.3943901,357.416088 60.5,348.41197 60.5,341.5 C60.5,329.644275 45.7070881,312.11789 15.9022522,289.801688 L13.1005645,287.70394 L17.2960601,282.100564 L20.0977478,284.198312 C51.6262452,307.805096 67.5,326.612045 67.5,341.5 C67.5,350.742856 61.4289054,361.369471 49.5064129,373.646136 L60.0142803,386.135911 L17.617396,396.321892 L34.9067421,356.292796 L44.9755992,368.260758 Z"></path>
                <path id="Line-3" d="M39.0958333,-2.84861111 L97.5,-2.84861111 L101,-2.84861111 L101,4.15138889 L97.5,4.15138889 L39.0958333,4.15138889 L39.0958333,20.1513889 L0.0958333333,0.651388889 L39.0958333,-18.8486111 L39.0958333,-2.84861111 Z"></path>
                <path id="Line-2" d="M52.9755992,567.260758 C63.3943901,556.416088 68.5,547.41197 68.5,540.5 C68.5,528.644275 53.7070881,511.11789 23.9022522,488.801688 L21.1005645,486.70394 L25.2960601,481.100564 L28.0977478,483.198312 C59.6262452,506.805096 75.5,525.612045 75.5,540.5 C75.5,549.742856 69.4289054,560.369471 57.5064129,572.646136 L68.0142803,585.135911 L25.617396,595.321892 L42.9067421,555.292796 L52.9755992,567.260758 Z"></path>
                <path id="Line-3" d="M90.5,701 L33,701 L29.5,701 L29.5,694 L33,694 L90.5,694 L90.5,678 L129.5,697.5 L90.5,717 L90.5,701 Z"></path>
            </g>
        </g>
    </g>
</svg>