<?xml version="1.0" encoding="UTF-8"?>
<svg width="178px" height="771px" viewBox="0 0 178 771" version="1.1" xmlns="http://www.w3.org/2000/svg" xmlns:xlink="http://www.w3.org/1999/xlink">
    <!-- Generator: Sketch 52.4 (67378) - http://www.bohemiancoding.com/sketch -->
    <title>Group 2</title>
    <desc>Created with Sketch.</desc>
    <g id="Welcome" stroke="none" stroke-width="1" fill="none" fill-rule="evenodd">
        <g id="Desktop-Copy-3" transform="translate(-319.000000, -12.000000)" stroke="#979797">
            <g id="Group-2" transform="translate(325.000000, 19.000000)">
                <g id="Group" transform="translate(82.000000, 84.500000) rotate(90.000000) translate(-82.000000, -84.500000) translate(-2.500000, 2.500000)">
                    <path d="M59.695986,159.798355 C67.1941948,161.903474 75.1230904,163.032091 83.3250798,163.032091 C129.966131,163.032091 167.776174,126.536114 167.776174,81.5160455 C167.776174,36.4959767 129.966131,5.68434189e-14 83.3250798,5.68434189e-14 C75.3355892,5.68434189e-14 67.605225,1.07089406 60.279646,3.07208584" id="Path" stroke-width="13" fill="#FEFBCA" transform="translate(113.736080, 81.516045) scale(1, -1) translate(-113.736080, -81.516045) "></path>
                    <path d="M60.0734047,5.68434189e-14 L60.0734047,163.032091" id="Line-Copy" stroke-linecap="square" transform="translate(60.073405, 81.516045) scale(1, -1) translate(-60.073405, -81.516045) "></path>
                    <ellipse id="Oval" stroke-width="13" transform="translate(84.451094, 81.516045) scale(1, -1) translate(-84.451094, -81.516045) " cx="84.4510944" cy="81.5160455" rx="84.4510944" ry="81.5160455"></ellipse>
                </g>
                <g id="Group-Copy-2" transform="translate(82.000000, 279.500000) rotate(90.000000) translate(-82.000000, -279.500000) translate(-2.500000, 197.500000)">
                    <path d="M59.695986,159.798355 C67.1941948,161.903474 75.1230904,163.032091 83.3250798,163.032091 C129.966131,163.032091 167.776174,126.536114 167.776174,81.5160455 C167.776174,36.4959767 129.966131,5.68434189e-14 83.3250798,5.68434189e-14 C75.3355892,5.68434189e-14 67.605225,1.07089406 60.279646,3.07208584" id="Path" stroke-width="13" fill="#F1E763" transform="translate(113.736080, 81.516045) scale(1, -1) translate(-113.736080, -81.516045) "></path>
                    <path d="M60.0734047,5.68434189e-14 L60.0734047,163.032091" id="Line-Copy" stroke-linecap="square" transform="translate(60.073405, 81.516045) scale(1, -1) translate(-60.073405, -81.516045) "></path>
                    <ellipse id="Oval" stroke-width="13" transform="translate(84.451094, 81.516045) scale(1, -1) translate(-84.451094, -81.516045) " cx="84.4510944" cy="81.5160455" rx="84.4510944" ry="81.5160455"></ellipse>
                </g>
                <g id="Group-Copy-3" transform="translate(82.000000, 473.500000) rotate(90.000000) translate(-82.000000, -473.500000) translate(-2.500000, 391.500000)">
                    <path d="M59.695986,159.798355 C67.1941948,161.903474 75.1230904,163.032091 83.3250798,163.032091 C129.966131,163.032091 167.776174,126.536114 167.776174,81.5160455 C167.776174,36.4959767 129.966131,5.68434189e-14 83.3250798,5.68434189e-14 C75.3355892,5.68434189e-14 67.605225,1.07089406 60.279646,3.07208584" id="Path" stroke-width="13" fill="#F5CD4B" transform="translate(113.736080, 81.516045) scale(1, -1) translate(-113.736080, -81.516045) "></path>
                    <path d="M60.0734047,5.68434189e-14 L60.0734047,163.032091" id="Line-Copy" stroke-linecap="square" transform="translate(60.073405, 81.516045) scale(1, -1) translate(-60.073405, -81.516045) "></path>
                    <ellipse id="Oval" stroke-width="13" transform="translate(84.451094, 81.516045) scale(1, -1) translate(-84.451094, -81.516045) " cx="84.4510944" cy="81.5160455" rx="84.4510944" ry="81.5160455"></ellipse>
                </g>
                <g id="Group-Copy" transform="translate(83.000000, 672.500000) rotate(90.000000) translate(-83.000000, -672.500000) translate(-1.500000, 590.500000)">
                    <path d="M59.695986,159.798355 C67.1941948,161.903474 75.1230904,163.032091 83.3250798,163.032091 C129.966131,163.032091 167.776174,126.536114 167.776174,81.5160455 C167.776174,36.4959767 129.966131,5.68434189e-14 83.3250798,5.68434189e-14 C75.3355892,5.68434189e-14 67.605225,1.07089406 60.279646,3.07208584" id="Path" stroke-width="13" fill="#F3A91C" transform="translate(113.736080, 81.516045) scale(1, -1) translate(-113.736080, -81.516045) "></path>
                    <path d="M60.0734047,5.68434189e-14 L60.0734047,163.032091" id="Line-Copy" stroke-linecap="square" transform="translate(60.073405, 81.516045) scale(1, -1) translate(-60.073405, -81.516045) "></path>
                    <ellipse id="Oval" stroke-width="13" transform="translate(84.451094, 81.516045) scale(1, -1) translate(-84.451094, -81.516045) " cx="84.4510944" cy="81.5160455" rx="84.4510944" ry="81.5160455"></ellipse>
                </g>
            </g>
        </g>
    </g>
</svg>