<?xml version="1.0" encoding="UTF-8"?>
<svg width="405px" height="771px" viewBox="0 0 405 771" version="1.1" xmlns="http://www.w3.org/2000/svg" xmlns:xlink="http://www.w3.org/1999/xlink">
    <!-- Generator: Sketch 52.4 (67378) - http://www.bohemiancoding.com/sketch -->
    <title>Group 2</title>
    <desc>Created with Sketch.</desc>
    <g id="Welcome" stroke="none" stroke-width="1" fill="none" fill-rule="evenodd">
        <g id="Desktop-Copy-3" transform="translate(-222.000000, -12.000000)">
            <g id="Group-2" transform="translate(226.000000, 19.000000)">
                <path id="Line-2" d="M315.975599,188.260758 C326.39439,177.416088 331.5,168.41197 331.5,161.5 C331.5,149.644275 316.707088,132.11789 286.902252,109.801688 L284.100564,107.70394 L288.29606,102.100564 L291.097748,104.198312 C322.626245,127.805096 338.5,146.612045 338.5,161.5 C338.5,170.742856 332.428905,181.369471 320.506413,193.646136 L331.01428,206.135911 L288.617396,216.321892 L305.906742,176.292796 L315.975599,188.260758 Z" fill="#979797" fill-rule="nonzero"></path>
                <g id="Group" transform="translate(181.000000, 84.500000) rotate(90.000000) translate(-181.000000, -84.500000) translate(96.500000, 2.500000)" stroke="#979797">
                    <path d="M59.695986,159.798355 C67.1941948,161.903474 75.1230904,163.032091 83.3250798,163.032091 C129.966131,163.032091 167.776174,126.536114 167.776174,81.5160455 C167.776174,36.4959767 129.966131,5.68434189e-14 83.3250798,5.68434189e-14 C75.3355892,5.68434189e-14 67.605225,1.07089406 60.279646,3.07208584" id="Path" stroke-width="13" fill="#FEFBCA" transform="translate(113.736080, 81.516045) scale(1, -1) translate(-113.736080, -81.516045) "></path>
                    <path d="M60.0734047,5.68434189e-14 L60.0734047,163.032091" id="Line-Copy" stroke-linecap="square" transform="translate(60.073405, 81.516045) scale(1, -1) translate(-60.073405, -81.516045) "></path>
                    <ellipse id="Oval" stroke-width="13" transform="translate(84.451094, 81.516045) scale(1, -1) translate(-84.451094, -81.516045) " cx="84.4510944" cy="81.5160455" rx="84.4510944" ry="81.5160455"></ellipse>
                </g>
                <g id="Group-Copy-2" transform="translate(181.000000, 279.500000) rotate(90.000000) translate(-181.000000, -279.500000) translate(96.500000, 197.500000)" stroke="#979797">
                    <path d="M59.695986,159.798355 C67.1941948,161.903474 75.1230904,163.032091 83.3250798,163.032091 C129.966131,163.032091 167.776174,126.536114 167.776174,81.5160455 C167.776174,36.4959767 129.966131,5.68434189e-14 83.3250798,5.68434189e-14 C75.3355892,5.68434189e-14 67.605225,1.07089406 60.279646,3.07208584" id="Path" stroke-width="13" fill="#F1E763" transform="translate(113.736080, 81.516045) scale(1, -1) translate(-113.736080, -81.516045) "></path>
                    <path d="M60.0734047,5.68434189e-14 L60.0734047,163.032091" id="Line-Copy" stroke-linecap="square" transform="translate(60.073405, 81.516045) scale(1, -1) translate(-60.073405, -81.516045) "></path>
                    <ellipse id="Oval" stroke-width="13" transform="translate(84.451094, 81.516045) scale(1, -1) translate(-84.451094, -81.516045) " cx="84.4510944" cy="81.5160455" rx="84.4510944" ry="81.5160455"></ellipse>
                </g>
                <g id="Group-Copy-3" transform="translate(181.000000, 473.500000) rotate(90.000000) translate(-181.000000, -473.500000) translate(96.500000, 391.500000)" stroke="#979797">
                    <path d="M59.695986,159.798355 C67.1941948,161.903474 75.1230904,163.032091 83.3250798,163.032091 C129.966131,163.032091 167.776174,126.536114 167.776174,81.5160455 C167.776174,36.4959767 129.966131,5.68434189e-14 83.3250798,5.68434189e-14 C75.3355892,5.68434189e-14 67.605225,1.07089406 60.279646,3.07208584" id="Path" stroke-width="13" fill="#F5CD4B" transform="translate(113.736080, 81.516045) scale(1, -1) translate(-113.736080, -81.516045) "></path>
                    <path d="M60.0734047,5.68434189e-14 L60.0734047,163.032091" id="Line-Copy" stroke-linecap="square" transform="translate(60.073405, 81.516045) scale(1, -1) translate(-60.073405, -81.516045) "></path>
                    <ellipse id="Oval" stroke-width="13" transform="translate(84.451094, 81.516045) scale(1, -1) translate(-84.451094, -81.516045) " cx="84.4510944" cy="81.5160455" rx="84.4510944" ry="81.5160455"></ellipse>
                </g>
                <g id="Group-Copy" transform="translate(185.000000, 672.500000) rotate(90.000000) translate(-185.000000, -672.500000) translate(100.500000, 590.500000)" stroke="#979797">
                    <path d="M59.695986,159.798355 C67.1941948,161.903474 75.1230904,163.032091 83.3250798,163.032091 C129.966131,163.032091 167.776174,126.536114 167.776174,81.5160455 C167.776174,36.4959767 129.966131,5.68434189e-14 83.3250798,5.68434189e-14 C75.3355892,5.68434189e-14 67.605225,1.07089406 60.279646,3.07208584" id="Path" stroke-width="13" fill="#F3A91C" transform="translate(113.736080, 81.516045) scale(1, -1) translate(-113.736080, -81.516045) "></path>
                    <path d="M60.0734047,5.68434189e-14 L60.0734047,163.032091" id="Line-Copy" stroke-linecap="square" transform="translate(60.073405, 81.516045) scale(1, -1) translate(-60.073405, -81.516045) "></path>
                    <ellipse id="Oval" stroke-width="13" transform="translate(84.451094, 81.516045) scale(1, -1) translate(-84.451094, -81.516045) " cx="84.4510944" cy="81.5160455" rx="84.4510944" ry="81.5160455"></ellipse>
                </g>
                <path id="Line-3" d="M58.0958333,27.1513889 L0.404166667,27.1513889 L-3.09583333,27.1513889 L-3.09583333,20.1513889 L0.404166667,20.1513889 L58.0958333,20.1513889 L58.0958333,4.15138889 L97.0958333,23.6513889 L58.0958333,43.1513889 L58.0958333,27.1513889 Z" fill="#979797" fill-rule="nonzero"></path>
                <path id="Line-3-Copy" d="M46.2694994,409.150043 C25.1843076,392.78947 14.5,378.909765 14.5,366.942156 C14.5,349.379254 36.4732278,337.704327 79.4247488,330.547597 L82.8771517,329.972346 L84.0276542,336.877152 L80.5752512,337.452403 C40.8601056,344.069877 21.5,354.356387 21.5,366.942156 C21.5,376.036395 30.9748311,388.353657 50.2008986,403.339253 L59.0396632,390.27515 L80.4141228,428.280183 L37.1854213,422.576731 L46.2694994,409.150043 Z" fill="#979797" fill-rule="nonzero"></path>
                <path id="Line-2" d="M323.975599,590.260758 C334.39439,579.416088 339.5,570.41197 339.5,563.5 C339.5,551.644275 324.707088,534.11789 294.902252,511.801688 L292.100564,509.70394 L296.29606,504.100564 L299.097748,506.198312 C330.626245,529.805096 346.5,548.612045 346.5,563.5 C346.5,572.742856 340.428905,583.369471 328.506413,595.646136 L339.01428,608.135911 L296.617396,618.321892 L313.906742,578.292796 L323.975599,590.260758 Z" fill="#979797" fill-rule="nonzero"></path>
                <path id="Line-3" d="M361.5,724 L304,724 L300.5,724 L300.5,717 L304,717 L361.5,717 L361.5,701 L400.5,720.5 L361.5,740 L361.5,724 Z" fill="#979797" fill-rule="nonzero"></path>
            </g>
        </g>
    </g>
</svg>